<mxfile host="app.diagrams.net" modified="2021-04-05T20:14:41.352Z" agent="5.0 (Windows NT 10.0; Win64; x64) AppleWebKit/537.36 (KHTML, like Gecko) Chrome/89.0.4389.114 Safari/537.36" etag="cuw4twbKsAOHeCwYiuAQ" version="14.5.7" type="github">
  <diagram id="0g3qO2O3GigdgqyugBJ0" name="Page-1">
    <mxGraphModel dx="866" dy="522" grid="1" gridSize="10" guides="1" tooltips="1" connect="1" arrows="1" fold="1" page="1" pageScale="1" pageWidth="827" pageHeight="1169" math="0" shadow="0">
      <root>
        <mxCell id="0" />
        <mxCell id="1" parent="0" />
        <mxCell id="V7R6koRRGDmoJrFCyie_-8" value="" style="shape=flexArrow;endArrow=classic;html=1;endWidth=15;endSize=6.27;strokeWidth=2;fillColor=#FFA033;strokeColor=none;" edge="1" parent="1">
          <mxGeometry width="50" height="50" relative="1" as="geometry">
            <mxPoint x="130" y="400" as="sourcePoint" />
            <mxPoint x="270" y="400" as="targetPoint" />
          </mxGeometry>
        </mxCell>
        <mxCell id="V7R6koRRGDmoJrFCyie_-1" value="" style="rhombus;whiteSpace=wrap;html=1;strokeWidth=5;strokeColor=#DE7321;fillColor=#FFC31F;gradientColor=#FFC95C;" vertex="1" parent="1">
          <mxGeometry x="40" y="120" width="80" height="80" as="geometry" />
        </mxCell>
        <mxCell id="V7R6koRRGDmoJrFCyie_-2" value="&lt;span style=&quot;font-size: 26px&quot;&gt;&lt;b&gt;CLIENTE&lt;/b&gt;&lt;/span&gt;" style="text;html=1;strokeColor=none;fillColor=none;align=center;verticalAlign=middle;whiteSpace=wrap;rounded=0;" vertex="1" parent="1">
          <mxGeometry x="80" y="40" width="40" height="20" as="geometry" />
        </mxCell>
        <mxCell id="V7R6koRRGDmoJrFCyie_-3" value="&lt;b&gt;&lt;font style=&quot;font-size: 26px&quot;&gt;SERVIDOR&lt;/font&gt;&lt;/b&gt;" style="text;html=1;strokeColor=none;fillColor=none;align=center;verticalAlign=middle;whiteSpace=wrap;rounded=0;" vertex="1" parent="1">
          <mxGeometry x="90" y="280" width="40" height="20" as="geometry" />
        </mxCell>
        <mxCell id="V7R6koRRGDmoJrFCyie_-5" value="" style="rhombus;whiteSpace=wrap;html=1;strokeWidth=5;strokeColor=#DE7321;fillColor=#FFC31F;gradientColor=#FFC95C;" vertex="1" parent="1">
          <mxGeometry x="40" y="360" width="80" height="80" as="geometry" />
        </mxCell>
        <mxCell id="V7R6koRRGDmoJrFCyie_-9" value="" style="shape=flexArrow;endArrow=classic;html=1;endWidth=15;endSize=6.27;strokeWidth=2;fillColor=#FFA033;strokeColor=none;" edge="1" parent="1">
          <mxGeometry width="50" height="50" relative="1" as="geometry">
            <mxPoint x="130" y="159.5" as="sourcePoint" />
            <mxPoint x="270" y="159.5" as="targetPoint" />
          </mxGeometry>
        </mxCell>
        <mxCell id="V7R6koRRGDmoJrFCyie_-10" value="" style="pointerEvents=1;shadow=0;dashed=0;html=1;strokeColor=none;aspect=fixed;labelPosition=center;verticalLabelPosition=bottom;verticalAlign=top;align=center;outlineConnect=0;shape=mxgraph.vvd.web_browser;fillColor=#450808;" vertex="1" parent="1">
          <mxGeometry x="55" y="143" width="50" height="35.5" as="geometry" />
        </mxCell>
        <mxCell id="V7R6koRRGDmoJrFCyie_-11" value="" style="pointerEvents=1;shadow=0;dashed=0;html=1;strokeColor=none;aspect=fixed;labelPosition=center;verticalLabelPosition=bottom;verticalAlign=top;align=center;outlineConnect=0;shape=mxgraph.vvd.web_browser;fillColor=#450808;" vertex="1" parent="1">
          <mxGeometry x="55" y="383" width="50" height="35.5" as="geometry" />
        </mxCell>
        <mxCell id="V7R6koRRGDmoJrFCyie_-15" value="" style="aspect=fixed;html=1;points=[];align=center;image;fontSize=12;image=img/lib/azure2/general/Folder_Website.svg;strokeColor=#DE7321;strokeWidth=5;fillColor=#500A0A;gradientColor=#FFC95C;" vertex="1" parent="1">
          <mxGeometry x="480" y="372" width="68" height="56.00000000000001" as="geometry" />
        </mxCell>
        <mxCell id="V7R6koRRGDmoJrFCyie_-16" value="" style="aspect=fixed;html=1;points=[];align=center;image;fontSize=12;image=img/lib/azure2/general/Folder_Blank.svg;strokeColor=#DE7321;strokeWidth=5;fillColor=#500A0A;gradientColor=#FFC95C;" vertex="1" parent="1">
          <mxGeometry x="280" y="132" width="69" height="56.00000000000001" as="geometry" />
        </mxCell>
        <mxCell id="V7R6koRRGDmoJrFCyie_-17" value="" style="aspect=fixed;perimeter=ellipsePerimeter;html=1;align=center;shadow=0;dashed=0;spacingTop=3;image;image=img/lib/active_directory/generic_server.svg;strokeColor=#DE7321;strokeWidth=5;fillColor=#500A0A;gradientColor=#FFC95C;" vertex="1" parent="1">
          <mxGeometry x="280" y="372" width="38.08" height="68" as="geometry" />
        </mxCell>
        <mxCell id="V7R6koRRGDmoJrFCyie_-18" value="" style="shape=flexArrow;endArrow=classic;html=1;endWidth=15;endSize=6.27;strokeWidth=2;fillColor=#FFA033;strokeColor=none;" edge="1" parent="1">
          <mxGeometry width="50" height="50" relative="1" as="geometry">
            <mxPoint x="330.00000000000006" y="399.5" as="sourcePoint" />
            <mxPoint x="470.00000000000006" y="399.5" as="targetPoint" />
          </mxGeometry>
        </mxCell>
        <mxCell id="V7R6koRRGDmoJrFCyie_-19" value="" style="shape=image;html=1;verticalAlign=top;verticalLabelPosition=bottom;labelBackgroundColor=#ffffff;imageAspect=0;aspect=fixed;image=https://cdn4.iconfinder.com/data/icons/bitcons/yellow/64x64/tcp.gif;strokeColor=#DE7321;strokeWidth=5;fillColor=#500A0A;gradientColor=#FFC95C;" vertex="1" parent="1">
          <mxGeometry x="267" y="490" width="64" height="64" as="geometry" />
        </mxCell>
        <mxCell id="V7R6koRRGDmoJrFCyie_-20" value="" style="shape=image;html=1;verticalAlign=top;verticalLabelPosition=bottom;labelBackgroundColor=#ffffff;imageAspect=0;aspect=fixed;image=https://cdn2.iconfinder.com/data/icons/designer-skills/128/code-programming-java-software-develop-command-language-128.png;strokeColor=#DE7321;strokeWidth=5;fillColor=#500A0A;gradientColor=#FFC95C;" vertex="1" parent="1">
          <mxGeometry x="170" y="490" width="68" height="68" as="geometry" />
        </mxCell>
        <mxCell id="V7R6koRRGDmoJrFCyie_-21" value="" style="shape=image;html=1;verticalAlign=top;verticalLabelPosition=bottom;labelBackgroundColor=#ffffff;imageAspect=0;aspect=fixed;image=https://cdn3.iconfinder.com/data/icons/logos-and-brands-adobe/512/256_Php-128.png;strokeColor=#DE7321;strokeWidth=5;fillColor=#500A0A;gradientColor=#FFC95C;" vertex="1" parent="1">
          <mxGeometry x="360" y="482" width="80" height="80" as="geometry" />
        </mxCell>
        <mxCell id="V7R6koRRGDmoJrFCyie_-22" value="" style="rounded=0;whiteSpace=wrap;html=1;strokeWidth=5;fillColor=#500A0A;gradientColor=#FFC95C;strokeColor=none;" vertex="1" parent="1">
          <mxGeometry x="151" y="458" width="10" height="30" as="geometry" />
        </mxCell>
        <mxCell id="V7R6koRRGDmoJrFCyie_-23" value="" style="rounded=0;whiteSpace=wrap;html=1;strokeWidth=5;fillColor=#500A0A;gradientColor=#FFC95C;strokeColor=none;" vertex="1" parent="1">
          <mxGeometry x="449" y="458" width="10" height="30" as="geometry" />
        </mxCell>
        <mxCell id="V7R6koRRGDmoJrFCyie_-26" value="" style="rounded=0;whiteSpace=wrap;html=1;strokeWidth=5;fillColor=#500A0A;gradientColor=#FFC95C;strokeColor=none;" vertex="1" parent="1">
          <mxGeometry x="160" y="468" width="290" height="10" as="geometry" />
        </mxCell>
      </root>
    </mxGraphModel>
  </diagram>
</mxfile>
